<?xml version="1.0" encoding="iso-8859-1"?>
<!-- Generator: Adobe Illustrator 19.0.0, SVG Export Plug-In . SVG Version: 6.00 Build 0)  -->
<svg version="1.1" id="Layer_1" xmlns="http://www.w3.org/2000/svg" xmlns:xlink="http://www.w3.org/1999/xlink"
     x="0px" y="0px"
     viewBox="0 0 508 508"
     style="enable-background:new 0 0 508 508;" xml:space="preserve">
<circle style="fill:#FD8469;" cx="254" cy="254" r="254"/>
    <path style="fill:#E6E9EE;" d="M409.2,197.2H152c-4.8,0-9.2,3.6-10,8.4l-26.4,131.2c-1.6,7.2,4,13.6,11.2,13.6h254.8
	c5.6,0,10-4,11.2-9.2l26.8-131.6C420.4,203.2,415.6,197.2,409.2,197.2z"/>
    <path style="fill:#FFFFFF;" d="M380.4,139.6H248c-2.8,0-5.2-1.2-7.2-3.2l-25.2-25.2c-2-2-4.4-3.2-7.2-3.2h-85.6
	c-5.6,0-10.4,4.4-10.4,10.4v220.4c0,6.4,5.2,11.6,11.6,11.6h255.2c6.4,0,11.6-5.2,11.6-11.6V149.6C390.4,144,386,139.6,380.4,139.6z
	"/>
    <rect x="292.87" y="303.288" transform="matrix(-0.7071 0.7071 -0.7071 -0.7071 750.8866 352.3473)"
          style="fill:#2B3B4E;" width="19.2" height="56.799"/>
    <path style="fill:#324A5E;" d="M192,221.2c-27.2,27.2-27.2,71.2,0,98.4s71.2,27.2,98.4,0c27.2-27.2,27.2-71.2,0-98.4
	C263.2,194,219.2,194,192,221.2z M277.6,306.8c-20,20-53.2,20-73.2,0s-20-53.2,0-73.2s53.2-20,73.2,0S298,286.4,277.6,306.8z"/>
    <path style="fill:#84DBFF;"
          d="M204.4,233.6c-20,20-20,53.2,0,73.2c20,20,53.2,20,73.2,0s20-53.2,0-73.2S224.8,213.2,204.4,233.6z"
    />
    <path style="fill:#FFD05B;" d="M314,322l-21.2,21.2c-1.6,1.6-1.6,4.8,0,6.4l64.8,64.8c1.6,1.6,4.8,1.6,6.4,0l21.2-21.2
	c1.6-1.6,1.6-4.8,0-6.4L320.4,322C318.8,320.4,316,320.4,314,322z"/>
</svg>
